<svg id="Capa_1" enable-background="new 0 0 512 512" height="512" viewBox="0 0 512 512" width="512" xmlns="http://www.w3.org/2000/svg" xmlns:xlink="http://www.w3.org/1999/xlink"><linearGradient id="SVGID_1_" gradientUnits="userSpaceOnUse" x1="45.274" x2="466.726" y1="256" y2="256"><stop offset=".0485" stop-color="#d2deff"/><stop offset=".9993" stop-color="#dcfdee"/></linearGradient><g><g><g><path d="m97.146 38.232c-135.328 119.538 38.831 235.409 22.243 366.028-7.375 58.072 16.054 113.588 92.705 107.244 93.413-7.732 59.504-97.209 79.066-156.778 33.66-102.501 240.73-78.56 154.895-236.448-54.778-100.758-255.766-162.321-348.909-80.046z" fill="url(#SVGID_1_)"/></g><g><path d="m386.53 88.415v377.92c0 16.57-13.43 30-30 30h-201.06c-16.57 0-30-13.43-30-30v-377.92c0-16.57 13.43-30 30-30h201.06c16.57 0 30 13.43 30 30z" fill="#2626bc" opacity=".1"/><path d="m386.53 64.416v377.92c0 16.57-13.43 30-30 30h-201.06c-16.57 0-30-13.43-30-30v-377.92c0-16.57 13.43-30 30-30h201.06c16.57 0 30 13.429 30 30z" fill="#02ffb3"/><g><g><g><path d="m386.53 165.26v277.08c0 16.57-13.43 30-30 30h-106.09v-66.45h-56.99c-8.47 0-14.91-7.59-13.54-15.94l2.85-17.33 1.65-10.01 3.12-18.96 1.65-10h-24.24c-7.57 0-13.71-6.14-13.71-13.72v-63.63c0-74.7 60.55-135.26 135.26-135.26 39.64 0 75.3 17.05 100.04 44.22z" fill="#ffa8cf"/><g><path d="m214.12 338.65c0 2.76-2.24 5-5 5h-21.59l1.65-10h19.94c2.76 0 5 2.24 5 5z" fill="#ff5ba8"/></g><g><path d="m269.18 359.32c-1.02.54-25.51 13.27-86.42 13.3l1.65-10.01c56.75-.24 79.84-12 80.07-12.12 2.44-1.28 5.46-.35 6.75 2.08 1.29 2.44.38 5.45-2.05 6.75z" fill="#ff5ba8"/></g><g><path d="m255.291 274.864c-2.762 0-5-2.238-5-5v-4.801c0-2.762 2.238-5 5-5s5 2.238 5 5v4.801c0 2.762-2.238 5-5 5z" fill="#ff5ba8"/></g><g><path d="m327.797 332.981c-11.115 0-22.231-4.23-30.693-12.693-1.953-1.952-1.953-5.118 0-7.07 1.951-1.953 5.119-1.953 7.07 0 13.025 13.025 34.221 13.025 47.246 0 13.025-13.026 13.025-34.22 0-47.246-13.025-13.025-34.221-13.025-47.246 0-1.951 1.953-5.119 1.953-7.07 0-1.953-1.952-1.953-5.118 0-7.07 16.924-16.926 44.463-16.926 61.387 0 16.925 16.924 16.925 44.463 0 61.387-8.463 8.461-19.579 12.692-30.694 12.692z" fill="#ff5ba8"/></g></g></g></g><path d="m311.593 57.355 7.157-22.939h-125.5l7.157 22.939c1.303 4.177 5.171 7.022 9.546 7.022h92.093c4.376-.001 8.244-2.845 9.547-7.022z" fill="#6583fe"/><path d="m217 183.297h-57.546c-2.761 0-5-2.239-5-5v-85.915c0-2.761 2.239-5 5-5h57.546c2.761 0 5 2.239 5 5v85.915c0 2.761-2.239 5-5 5z" fill="#6583fe"/><g><g><path d="m204.84 141.075c0-9.161-7.453-16.613-16.613-16.613s-16.613 7.453-16.613 16.613c0 4.518 1.818 8.615 4.755 11.613-2.936 2.998-4.755 7.095-4.755 11.613 0 2.761 2.239 5 5 5s5-2.239 5-5c0-3.646 2.967-6.613 6.613-6.613s6.613 2.967 6.613 6.613c0 2.761 2.239 5 5 5s5-2.239 5-5c0-4.518-1.818-8.615-4.755-11.613 2.937-2.998 4.755-7.095 4.755-11.613zm-16.613-6.613c3.646 0 6.613 2.967 6.613 6.613s-2.967 6.613-6.613 6.613-6.613-2.967-6.613-6.613 2.967-6.613 6.613-6.613z" fill="#fff"/></g></g><g><path d="m309.26 437.787h-106.52c-2.762 0-5-2.239-5-5s2.238-5 5-5h106.52c2.762 0 5 2.239 5 5s-2.239 5-5 5z" fill="#6583fe"/></g><g><path d="m179.833 62.746h-19c-2.761 0-5-2.239-5-5v-4.98c0-2.761 2.239-5 5-5h19c2.761 0 5 2.239 5 5v4.98c0 2.761-2.238 5-5 5z" fill="#8399fe"/><g><g><path d="m335.917 62.005c-2.761 0-5-2.239-5-5v-3.5c0-2.761 2.239-5 5-5s5 2.239 5 5v3.5c0 2.762-2.239 5-5 5z" fill="#8399fe"/></g><g><path d="m351.167 62.005c-2.761 0-5-2.239-5-5v-3.5c0-2.761 2.239-5 5-5s5 2.239 5 5v3.5c0 2.762-2.239 5-5 5z" fill="#8399fe"/></g></g></g><circle cx="206.333" cy="100.99" fill="#fff" r="4.823"/><path d="m88.234 137.04c-2.762 0-5-2.238-5-5 0-3.309-2.691-6-6-6-2.762 0-5-2.238-5-5s2.238-5 5-5c3.309 0 6-2.691 6-6 0-2.762 2.238-5 5-5s5 2.238 5 5c0 3.309 2.691 6 6 6 2.762 0 5 2.238 5 5s-2.238 5-5 5c-3.309 0-6 2.691-6 6 0 2.762-2.238 5-5 5z" fill="#6583fe"/><path d="m448.162 245.104c-2.762 0-5-2.238-5-5 0-3.309-2.691-6-6-6-2.762 0-5-2.238-5-5s2.238-5 5-5c3.309 0 6-2.691 6-6 0-2.762 2.238-5 5-5s5 2.238 5 5c0 3.309 2.691 6 6 6 2.762 0 5 2.238 5 5s-2.238 5-5 5c-3.309 0-6 2.691-6 6 0 2.761-2.238 5-5 5z" fill="#6583fe"/><path d="m77.249 193.297c-2.762 0-5-2.238-5-5 0-3.309-2.691-6-6-6-2.762 0-5-2.238-5-5s2.238-5 5-5c3.309 0 6-2.691 6-6 0-2.762 2.238-5 5-5s5 2.238 5 5c0 3.309 2.691 6 6 6 2.762 0 5 2.238 5 5s-2.238 5-5 5c-3.309 0-6 2.691-6 6 0 2.762-2.238 5-5 5z" fill="#ff7eb8"/><path d="m422.86 301.517c-1.279 0-2.56-.488-3.535-1.465l-11-11c-1.953-1.952-1.953-5.118 0-7.07l11-11c1.951-1.953 5.119-1.953 7.07 0l11 11c1.953 1.952 1.953 5.118 0 7.07l-11 11c-.975.976-2.255 1.465-3.535 1.465zm-3.928-16 3.929 3.929 3.929-3.929-3.929-3.929z" fill="#01eca5"/><path d="m435.803 349.31c-1.279 0-2.56-.488-3.535-1.465l-11-11c-1.953-1.952-1.953-5.118 0-7.07l11-11c1.951-1.953 5.119-1.953 7.07 0l11 11c1.953 1.952 1.953 5.118 0 7.07l-11 11c-.976.976-2.256 1.465-3.535 1.465zm-3.929-16 3.929 3.929 3.929-3.929-3.929-3.929z" fill="#ff7eb8"/></g></g><g fill="#2626bc"><path d="m391.531 64.414c0-19.299-15.701-35-35-35h-201.062c-19.299 0-35 15.701-35 35v139.756c0 2.762 2.238 5 5 5s5-2.238 5-5v-139.756c0-13.785 11.215-25 25-25h201.063c13.785 0 25 11.215 25 25v377.922c0 13.785-11.215 25-25 25h-50.034c-2.762 0-5 2.238-5 5s2.238 5 5 5h50.034c19.299 0 35-15.701 35-35v-377.922z"/><path d="m125.469 232.83c-2.762 0-5 2.238-5 5v204.506c0 19.299 15.701 35 35 35h117.367c2.762 0 5-2.238 5-5s-2.238-5-5-5h-117.367c-13.785 0-25-11.215-25-25v-204.506c0-2.762-2.239-5-5-5z"/></g></g></svg>